<mxfile host="app.diagrams.net" modified="2021-08-25T20:16:31.472Z" agent="5.0 (X11)" etag="C4UgeVZXPVuOXegFPdie" version="14.9.9" type="github">
  <diagram id="91IPUQg3jJmsBU4YLewV" name="Page-1">
    <mxGraphModel dx="2272" dy="695" grid="1" gridSize="10" guides="1" tooltips="1" connect="1" arrows="1" fold="1" page="1" pageScale="1" pageWidth="850" pageHeight="1100" math="0" shadow="0">
      <root>
        <mxCell id="0" />
        <mxCell id="1" parent="0" />
        <mxCell id="E9BA__DUHbCICw5vAPci-23" style="edgeStyle=orthogonalEdgeStyle;rounded=0;orthogonalLoop=1;jettySize=auto;html=1;exitX=0.5;exitY=1;exitDx=0;exitDy=0;entryX=0.5;entryY=0;entryDx=0;entryDy=0;" edge="1" parent="1" source="E9BA__DUHbCICw5vAPci-1" target="E9BA__DUHbCICw5vAPci-3">
          <mxGeometry relative="1" as="geometry" />
        </mxCell>
        <mxCell id="E9BA__DUHbCICw5vAPci-1" value="&lt;div&gt;Tambo&lt;/div&gt;&lt;div&gt;/home/airflow/Repositorio&lt;br&gt;&lt;/div&gt;" style="rounded=1;whiteSpace=wrap;html=1;" vertex="1" parent="1">
          <mxGeometry x="60" y="100" width="160" height="60" as="geometry" />
        </mxCell>
        <mxCell id="E9BA__DUHbCICw5vAPci-13" style="edgeStyle=orthogonalEdgeStyle;rounded=0;orthogonalLoop=1;jettySize=auto;html=1;exitX=0;exitY=0.5;exitDx=0;exitDy=0;entryX=0.75;entryY=0;entryDx=0;entryDy=0;" edge="1" parent="1" source="E9BA__DUHbCICw5vAPci-3" target="E9BA__DUHbCICw5vAPci-11">
          <mxGeometry relative="1" as="geometry" />
        </mxCell>
        <mxCell id="E9BA__DUHbCICw5vAPci-3" value="Repositorio" style="rounded=1;whiteSpace=wrap;html=1;" vertex="1" parent="1">
          <mxGeometry x="80" y="180" width="120" height="60" as="geometry" />
        </mxCell>
        <mxCell id="E9BA__DUHbCICw5vAPci-16" style="edgeStyle=orthogonalEdgeStyle;rounded=0;orthogonalLoop=1;jettySize=auto;html=1;exitX=0.5;exitY=0;exitDx=0;exitDy=0;entryX=0;entryY=0.5;entryDx=0;entryDy=0;" edge="1" parent="1" source="E9BA__DUHbCICw5vAPci-4" target="E9BA__DUHbCICw5vAPci-3">
          <mxGeometry relative="1" as="geometry" />
        </mxCell>
        <mxCell id="E9BA__DUHbCICw5vAPci-4" value="Dokerfiles" style="rounded=0;whiteSpace=wrap;html=1;" vertex="1" parent="1">
          <mxGeometry x="-50" y="280" width="120" height="60" as="geometry" />
        </mxCell>
        <mxCell id="E9BA__DUHbCICw5vAPci-17" style="edgeStyle=orthogonalEdgeStyle;rounded=0;orthogonalLoop=1;jettySize=auto;html=1;exitX=0.5;exitY=0;exitDx=0;exitDy=0;entryX=0.5;entryY=1;entryDx=0;entryDy=0;" edge="1" parent="1" source="E9BA__DUHbCICw5vAPci-7" target="E9BA__DUHbCICw5vAPci-3">
          <mxGeometry relative="1" as="geometry" />
        </mxCell>
        <mxCell id="E9BA__DUHbCICw5vAPci-7" value="Contenedores" style="rounded=0;whiteSpace=wrap;html=1;" vertex="1" parent="1">
          <mxGeometry x="80" y="280" width="120" height="60" as="geometry" />
        </mxCell>
        <mxCell id="E9BA__DUHbCICw5vAPci-20" style="edgeStyle=orthogonalEdgeStyle;rounded=0;orthogonalLoop=1;jettySize=auto;html=1;exitX=0.5;exitY=0;exitDx=0;exitDy=0;" edge="1" parent="1" source="E9BA__DUHbCICw5vAPci-8">
          <mxGeometry relative="1" as="geometry">
            <mxPoint x="200" y="210" as="targetPoint" />
            <Array as="points">
              <mxPoint x="400" y="210" />
            </Array>
          </mxGeometry>
        </mxCell>
        <mxCell id="E9BA__DUHbCICw5vAPci-8" value="Salida de Dags" style="rounded=0;whiteSpace=wrap;html=1;" vertex="1" parent="1">
          <mxGeometry x="340" y="280" width="120" height="60" as="geometry" />
        </mxCell>
        <mxCell id="E9BA__DUHbCICw5vAPci-18" style="edgeStyle=orthogonalEdgeStyle;rounded=0;orthogonalLoop=1;jettySize=auto;html=1;exitX=0.5;exitY=0;exitDx=0;exitDy=0;entryX=1;entryY=0.5;entryDx=0;entryDy=0;" edge="1" parent="1" source="E9BA__DUHbCICw5vAPci-9" target="E9BA__DUHbCICw5vAPci-3">
          <mxGeometry relative="1" as="geometry" />
        </mxCell>
        <mxCell id="E9BA__DUHbCICw5vAPci-9" value="BD" style="rounded=0;whiteSpace=wrap;html=1;" vertex="1" parent="1">
          <mxGeometry x="210" y="280" width="120" height="60" as="geometry" />
        </mxCell>
        <mxCell id="E9BA__DUHbCICw5vAPci-11" value="Dags de células" style="rounded=0;whiteSpace=wrap;html=1;" vertex="1" parent="1">
          <mxGeometry x="-180" y="280" width="120" height="60" as="geometry" />
        </mxCell>
        <mxCell id="E9BA__DUHbCICw5vAPci-24" style="edgeStyle=orthogonalEdgeStyle;rounded=0;orthogonalLoop=1;jettySize=auto;html=1;exitX=0.5;exitY=1;exitDx=0;exitDy=0;entryX=0.5;entryY=0;entryDx=0;entryDy=0;" edge="1" parent="1" source="E9BA__DUHbCICw5vAPci-25" target="E9BA__DUHbCICw5vAPci-27">
          <mxGeometry relative="1" as="geometry" />
        </mxCell>
        <mxCell id="E9BA__DUHbCICw5vAPci-25" value="&lt;div&gt;Tambo&lt;/div&gt;&lt;div&gt;/home/airflow/Repositorio&lt;br&gt;&lt;/div&gt;" style="rounded=1;whiteSpace=wrap;html=1;" vertex="1" parent="1">
          <mxGeometry x="800" y="100" width="160" height="60" as="geometry" />
        </mxCell>
        <mxCell id="E9BA__DUHbCICw5vAPci-27" value="Repositorio" style="rounded=1;whiteSpace=wrap;html=1;" vertex="1" parent="1">
          <mxGeometry x="820" y="180" width="120" height="60" as="geometry" />
        </mxCell>
        <mxCell id="E9BA__DUHbCICw5vAPci-28" style="edgeStyle=orthogonalEdgeStyle;rounded=0;orthogonalLoop=1;jettySize=auto;html=1;exitX=0.5;exitY=0;exitDx=0;exitDy=0;entryX=0;entryY=0.5;entryDx=0;entryDy=0;" edge="1" parent="1" source="E9BA__DUHbCICw5vAPci-29" target="E9BA__DUHbCICw5vAPci-27">
          <mxGeometry relative="1" as="geometry" />
        </mxCell>
        <mxCell id="E9BA__DUHbCICw5vAPci-29" value="Dokerfiles" style="rounded=0;whiteSpace=wrap;html=1;" vertex="1" parent="1">
          <mxGeometry x="700" y="280" width="120" height="60" as="geometry" />
        </mxCell>
        <mxCell id="E9BA__DUHbCICw5vAPci-30" style="edgeStyle=orthogonalEdgeStyle;rounded=0;orthogonalLoop=1;jettySize=auto;html=1;exitX=0.5;exitY=0;exitDx=0;exitDy=0;entryX=1;entryY=0.5;entryDx=0;entryDy=0;" edge="1" parent="1" source="E9BA__DUHbCICw5vAPci-31" target="E9BA__DUHbCICw5vAPci-27">
          <mxGeometry relative="1" as="geometry" />
        </mxCell>
        <mxCell id="E9BA__DUHbCICw5vAPci-31" value="Contenedores" style="rounded=0;whiteSpace=wrap;html=1;" vertex="1" parent="1">
          <mxGeometry x="940" y="280" width="120" height="60" as="geometry" />
        </mxCell>
        <mxCell id="E9BA__DUHbCICw5vAPci-43" style="edgeStyle=orthogonalEdgeStyle;rounded=0;orthogonalLoop=1;jettySize=auto;html=1;exitX=0.5;exitY=0;exitDx=0;exitDy=0;entryX=1;entryY=0.5;entryDx=0;entryDy=0;" edge="1" parent="1" source="E9BA__DUHbCICw5vAPci-33" target="E9BA__DUHbCICw5vAPci-40">
          <mxGeometry relative="1" as="geometry" />
        </mxCell>
        <mxCell id="E9BA__DUHbCICw5vAPci-33" value="Salida de Dags" style="rounded=0;whiteSpace=wrap;html=1;" vertex="1" parent="1">
          <mxGeometry x="950" y="460" width="120" height="60" as="geometry" />
        </mxCell>
        <mxCell id="E9BA__DUHbCICw5vAPci-44" style="edgeStyle=orthogonalEdgeStyle;rounded=0;orthogonalLoop=1;jettySize=auto;html=1;exitX=0.5;exitY=0;exitDx=0;exitDy=0;entryX=0.5;entryY=1;entryDx=0;entryDy=0;" edge="1" parent="1" source="E9BA__DUHbCICw5vAPci-35" target="E9BA__DUHbCICw5vAPci-40">
          <mxGeometry relative="1" as="geometry" />
        </mxCell>
        <mxCell id="E9BA__DUHbCICw5vAPci-35" value="BD" style="rounded=0;whiteSpace=wrap;html=1;" vertex="1" parent="1">
          <mxGeometry x="820" y="460" width="120" height="60" as="geometry" />
        </mxCell>
        <mxCell id="E9BA__DUHbCICw5vAPci-42" style="edgeStyle=orthogonalEdgeStyle;rounded=0;orthogonalLoop=1;jettySize=auto;html=1;exitX=0.5;exitY=0;exitDx=0;exitDy=0;entryX=0;entryY=0.5;entryDx=0;entryDy=0;" edge="1" parent="1" source="E9BA__DUHbCICw5vAPci-36" target="E9BA__DUHbCICw5vAPci-40">
          <mxGeometry relative="1" as="geometry" />
        </mxCell>
        <mxCell id="E9BA__DUHbCICw5vAPci-36" value="Dags de células" style="rounded=0;whiteSpace=wrap;html=1;" vertex="1" parent="1">
          <mxGeometry x="690" y="460" width="120" height="60" as="geometry" />
        </mxCell>
        <mxCell id="E9BA__DUHbCICw5vAPci-37" value="ANTES" style="text;html=1;strokeColor=none;fillColor=none;align=center;verticalAlign=middle;whiteSpace=wrap;rounded=0;" vertex="1" parent="1">
          <mxGeometry x="120" y="50" width="40" height="20" as="geometry" />
        </mxCell>
        <mxCell id="E9BA__DUHbCICw5vAPci-38" value="AHORA" style="text;html=1;align=center;verticalAlign=middle;resizable=0;points=[];autosize=1;strokeColor=none;" vertex="1" parent="1">
          <mxGeometry x="850" y="60" width="60" height="20" as="geometry" />
        </mxCell>
        <mxCell id="E9BA__DUHbCICw5vAPci-40" value="/user/local/tambo/" style="rounded=0;whiteSpace=wrap;html=1;" vertex="1" parent="1">
          <mxGeometry x="820" y="380" width="120" height="60" as="geometry" />
        </mxCell>
        <mxCell id="E9BA__DUHbCICw5vAPci-45" value="" style="endArrow=none;dashed=1;html=1;dashPattern=1 3;strokeWidth=2;" edge="1" parent="1">
          <mxGeometry width="50" height="50" relative="1" as="geometry">
            <mxPoint x="600" y="360" as="sourcePoint" />
            <mxPoint x="1140" y="360" as="targetPoint" />
          </mxGeometry>
        </mxCell>
      </root>
    </mxGraphModel>
  </diagram>
</mxfile>
